<svg height="26" viewBox="0 0 43 26" width="43" xmlns="http://www.w3.org/2000/svg" xmlns:xlink="http://www.w3.org/1999/xlink"><linearGradient id="a"><stop offset="0" stop-color="#6a11cb"/><stop offset="1" stop-color="#2575fc"/></linearGradient><linearGradient id="b" x1="-16.10687%" x2="220.080916%" xlink:href="#a" y1="68.352239%" y2="-20.281343%"/><linearGradient id="c" x1="-103.847826%" x2="112.534058%" xlink:href="#a" y1="86.311429%" y2="20.812%"/><g fill="none"><path d="m14.0572059.95789474v9.74837096c0 1.5769423-.2908824 2.7238095-1.0180883 3.4406015-.5817647.7167919-1.7452941 1.1468671-3.19970584 1.1468671-1.45441176 0-2.4725-.2867168-3.19970588-1.0035087-.5817647-.716792-1.01808823-1.8636592-1.01808823-3.5839599v-9.74837096h-5.38132353v9.74837096c0 2.8671679.5817647 5.0175438 1.74529412 6.5944862.14544117.1433584.29088235.4300752.5817647.5734336 1.59985294 1.5769423 3.92691177 2.2937343 7.27205882 2.2937343 3.19970584 0 5.67220584-.716792 7.12661764-2.2937343.1454412-.1433584.2908824-.4300752.5817647-.5734336 1.1635294-1.5769424 1.7452941-3.7273183 1.7452941-6.5944862v-9.74837096z" fill="url(#b)"/><path d="m22.7836765 25.3288221v-24.37092736h5.2358823v3.01052631c.7272059-1.29022556 1.599853-2.15037594 2.6179412-2.72380952s2.1816176-.86015038 3.6360294-.86015038c2.6179412 0 4.7995588.86015038 6.2539706 2.58045113s2.3270588 4.15739348 2.3270588 7.31127822c0 3.0105263-.7272059 5.447619-2.3270588 7.3112782-1.4544118 1.8636591-3.4905882 2.7238095-5.9630882 2.7238095-1.4544118 0-2.7633824-.2867168-3.7814706-.8601504-1.0180883-.5734336-1.8907353-1.4335839-2.6179412-2.5804511 0 .4300752.1454412 1.0035088.1454412 1.5769423v1.8636592 5.1609023h-5.5267647zm5.0904411-15.19599c0 1.7203007.4363236 3.0105263 1.3089706 3.8706767.8726471 1.0035087 2.0361765 1.4335839 3.4905883 1.4335839 1.4544117 0 2.6179411-.4300752 3.4905882-1.4335839.8726471-1.0035088 1.3089706-2.2937344 1.3089706-3.8706767 0-1.72030077-.4363235-3.01052634-1.3089706-4.01403511s-2.0361765-1.43358396-3.4905882-1.43358396c-1.4544118 0-2.6179412.43007519-3.4905883 1.43358396-1.0180882 1.00350877-1.3089706 2.29373434-1.3089706 4.01403511z" fill="url(#c)"/><path d="m17.8386765 25.1854637c-.1454412-.1433584-.2908824-.4300752-.5817647-.5734336-1.599853-1.5769424-3.9269118-2.2937344-7.27205886-2.2937344-3.19970588 0-5.67220588.716792-7.12661765 2.2937344-.14544117.1433584-.29088235.4300752-.5817647.5734336z" fill="#3a3a3a"/></g></svg>