<svg xmlns="http://www.w3.org/2000/svg" width="24" height="24" viewBox="0 0 24 24">
    <g fill="none" fill-rule="evenodd">
        <g fill="#271F1F" fill-rule="nonzero">
            <g>
                <g>
                    <g>
                        <path d="M19.603 7.166c.42.293.523.873.232 1.295-.813 1.176-1.665 2.152-2.556 2.922l1.571 2.292c.29.423.184 1.002-.236 1.294-.388.27-.908.2-1.214-.146l-.071-.092-1.554-2.267c-.972.564-1.986.902-3.04 1.01v2.596c0 .514-.415.93-.925.93-.474 0-.865-.359-.918-.822l-.006-.108v-2.646c-1.01-.157-1.98-.529-2.912-1.112l-1.687 2.425-.072.091c-.308.343-.829.41-1.215.137-.418-.294-.52-.874-.227-1.295L6.5 11.187C5.69 10.45 4.91 9.54 4.165 8.461c-.291-.422-.187-1.002.232-1.295.42-.293.995-.188 1.286.234 1.982 2.87 4.081 4.25 6.317 4.25 2.236 0 4.335-1.38 6.317-4.25.29-.422.867-.527 1.286-.234z" transform="translate(-300 -337) translate(24 305) translate(0 24) translate(276 8)"/>
                    </g>
                </g>
            </g>
        </g>
    </g>
</svg>
