<svg xmlns="http://www.w3.org/2000/svg" width="24" height="24" viewBox="0 0 24 24">
    <g fill="none" fill-rule="evenodd">
        <g fill="#271F1F" fill-rule="nonzero">
            <g>
                <g>
                    <g>
                        <path d="M14.544 5.302c.425-.383 1.14-.404 1.596-.047.427.333.477.878.136 1.26l-.08.08-6.02 5.419 6.019 5.39c.398.356.404.903.033 1.265l-.085.075c-.425.334-1.077.34-1.508.028l-.09-.072-6.74-6.036c-.377-.338-.405-.85-.082-1.213l.08-.082 6.74-6.067z" transform="translate(-300 -177) translate(24 145) translate(0 24) translate(276 8) rotate(-90 12 12)"/>
                    </g>
                </g>
            </g>
        </g>
    </g>
</svg>
