<svg width="24" height="24" viewBox="0 0 24 24" fill="none" xmlns="http://www.w3.org/2000/svg">
<path fill-rule="evenodd" clip-rule="evenodd" d="M20.5085 15.8528C20.5483 15.9012 20.5884 15.9501 20.629 15.9989C20.83 16.2417 20.9572 16.537 20.9955 16.8499C21.0338 17.1628 20.9816 17.4801 20.845 17.7642C20.5549 18.3708 19.9427 18.7486 19.2424 18.7486H4.76317C4.05958 18.7486 3.44317 18.3703 3.15395 17.7609C3.01802 17.4769 2.96631 17.1598 3.00494 16.8473C3.04357 16.5348 3.17092 16.2399 3.37192 15.9975C3.44011 15.9137 3.50723 15.8328 3.57326 15.7532C3.58257 15.7419 3.59187 15.7307 3.60114 15.7195C4.63333 14.4736 5.25629 13.7208 5.25629 10.1883C5.25629 6.98203 6.54067 4.89469 9.18348 3.80672C9.19775 3.79875 9.21058 3.78845 9.22145 3.77625C9.62879 2.41359 10.743 1.5 12.0002 1.5C13.2574 1.5 14.3721 2.41359 14.7794 3.77766C14.7903 3.79032 14.8033 3.80096 14.8179 3.80906C15.9504 4.275 16.8096 4.90547 17.4452 5.73656C18.3072 6.86156 18.7446 8.36156 18.7446 10.1897C18.7446 13.719 19.3678 14.4728 20.3981 15.719L20.3997 15.7209C20.4357 15.7643 20.4719 15.8084 20.5085 15.8528ZM13.9235 21.9679C13.3422 22.3156 12.6776 22.4995 12.0002 22.5C11.3229 22.4994 10.6585 22.3155 10.0772 21.9678C9.496 21.6201 9.01969 21.1216 8.69882 20.5252C8.68368 20.4965 8.67621 20.4645 8.67714 20.4321C8.67807 20.3997 8.68737 20.3682 8.70412 20.3405C8.72088 20.3128 8.74452 20.2899 8.77275 20.274C8.80099 20.2582 8.83284 20.2499 8.86522 20.25H15.1362C15.1685 20.25 15.2003 20.2583 15.2285 20.2742C15.2566 20.2901 15.2802 20.313 15.2969 20.3407C15.3136 20.3684 15.3229 20.3999 15.3238 20.4322C15.3247 20.4646 15.3172 20.4966 15.3021 20.5252C14.9812 21.1217 14.5048 21.6202 13.9235 21.9679Z" fill="white"/>
</svg>
